<svg xmlns="http://www.w3.org/2000/svg" viewBox="0 0 194.34 32.67"><defs><style>.cls-1{fill:#15e879;}.cls-2{fill:#666;}.cls-3{fill:#ccc;}</style></defs><title>logo</title><g id="レイヤー_2" data-name="レイヤー 2"><g id="レイヤー_1-2" data-name="レイヤー 1"><path class="cls-1" d="M14.69,17.31C11.89,10.79,8.71,3.4,4.25,3.4H.71L0,4.82H4.25c3.53,0,6.64,7.24,9.14,13.05.74,1.74,1.44,3.35,2.11,4.75.27-.52.53-1.08.8-1.65C15.75,19.77,15.2,18.5,14.69,17.31Z"/><path class="cls-1" d="M35.43,3.4a5.27,5.27,0,0,0-3.64,1.73,12,12,0,0,1,.89,1.09,4.06,4.06,0,0,1,2.75-1.4H39l.71-1.42Z"/><path class="cls-1" d="M25,17.31c-1.67,3.91-3.76,8.77-5.15,8.77-.76,0-1.74-1.48-2.75-3.46-.26.55-.53,1.06-.79,1.53,1.14,2.05,2.26,3.34,3.54,3.34,2.33,0,4.15-4.24,6.46-9.62,1.58-3.68,3.41-7.93,5.43-10.56a13.53,13.53,0,0,0-.9-1.13C28.6,8.93,26.72,13.29,25,17.31Z"/><path class="cls-2" d="M41.1,3.4l-.71,1.42H49.3a24.23,24.23,0,0,0-6.72,4.51c-1.66,1.44-3,2.57-4.31,2.57l-.68,1.35a3.73,3.73,0,0,0,.68.07c1.88,0,3.44-1.35,5.24-2.92C46.26,8,49.68,5.05,56,4.84v0l.71-1.42H41.1Z"/><path class="cls-3" d="M12.76,26.08c-1,0-2.46-2.93-3.63-5.28C6.24,15,4.59,14.74,1.42,14.74H.71L0,16.15H1.42c2.69,0,3.81,0,6.44,5.28,1.87,3.76,3.11,6.06,4.9,6.06,1.27,0,2.4-1.29,3.54-3.34-.26-.47-.53-1-.79-1.53C14.5,24.6,13.52,26.08,12.76,26.08Z"/><path class="cls-3" d="M33.9,8c-.4-.6-.8-1.19-1.21-1.75a11.65,11.65,0,0,0-1,1.09c.33.46.66,1,1,1.44,1.08,1.63,2.19,3.28,3.67,4.08L37,11.56A11.07,11.07,0,0,1,33.9,8Z"/><path class="cls-3" d="M28.35,3.4c-4.46,0-7.64,7.39-10.44,13.91C17.4,18.5,16.85,19.77,16.3,21c.26.57.53,1.13.79,1.65.68-1.4,1.38-3,2.12-4.75,2.5-5.81,5.61-13,9.14-13a3.48,3.48,0,0,1,2.48,1.36,12.22,12.22,0,0,1,1-1A4.68,4.68,0,0,0,28.35,3.4Z"/><path class="cls-3" d="M66.85,18.36v1.11c0,2.64.46,3.48,1.84,3.48,1.07,0,1.6-.88,1.6-2.52s-.42-2.68-2.18-5l-1.76-2.6c-2.18-3.29-2.9-5.05-2.9-7.31,0-3.37,2-5.51,5.24-5.51a4.5,4.5,0,0,1,4.67,3.71,12.22,12.22,0,0,1,.19,3.18l-3.48.34A13.7,13.7,0,0,0,70,4.94c-.11-1-.69-1.61-1.49-1.61-1,0-1.49.84-1.49,2.37s.15,1.91,2.52,5.47l1.8,2.6A13.43,13.43,0,0,1,73.85,21c0,3.41-1.87,5.32-5.2,5.32a4.85,4.85,0,0,1-4.25-2c-.84-1.15-1.11-2.22-1.11-4.44,0-.53,0-.76,0-1.37Z"/><path class="cls-3" d="M75.89,29.38h.31c1.76,0,2.41-.77,2.41-2.91a16.61,16.61,0,0,0-.35-3.33L75.62,6.89h3.25L80.4,18.06,82,6.89h3.21L81.74,28.5a4.48,4.48,0,0,1-4.86,4.17,5.07,5.07,0,0,1-1-.12Z"/><path class="cls-3" d="M87.33,6.89h3.25l.07,1.64C92,7.08,92.8,6.62,93.75,6.62a2.51,2.51,0,0,1,2,1.07c.42.65.54,1.38.54,3.29V25.9H93V11.09c0-.95-.27-1.41-.84-1.41s-.81.19-1.5.76V25.9H87.33Z"/><path class="cls-3" d="M105.69,22.84V25.9a9.41,9.41,0,0,1-1.92.27c-2.44,0-3.74-1.34-3.74-3.91V10H98.42V6.89H100V1.68h3.32V6.89h2.34V10h-2.34V21.12c0,1.22.54,1.76,1.72,1.76Z"/><path class="cls-3" d="M107.64.38H111v8.3c1.26-1.49,2.1-2.06,3.14-2.06a2.42,2.42,0,0,1,2,1.11c.43.65.54,1.37.54,3.36V25.9H113.3V11.09c0-.95-.26-1.41-.84-1.41s-.8.19-1.49.76V25.9h-3.33Z"/><path class="cls-3" d="M124.92,20v-.77h3.29c0,1.3,0,1.3,0,1.76,0,3.33-1.64,5.17-4.63,5.17a4.15,4.15,0,0,1-3.44-1.61,5.4,5.4,0,0,1-1-3.75V11.94c0-3.56,1.53-5.32,4.59-5.32,2.79,0,4.47,1.8,4.47,4.74V17h-5.74v4.21c0,1.37.35,1.95,1.19,1.95s1.26-.69,1.26-2.26Zm0-5.7V11.09c0-.91-.42-1.41-1.18-1.41s-1.23.53-1.23,1.41v3.22Z"/><path class="cls-3" d="M133.64,20.85a3.8,3.8,0,0,0,0,.61c0,1,.46,1.65,1.26,1.65s1.27-.65,1.27-1.65c0-1.19-.35-1.83-1.92-3.48l-1.3-1.34a7.37,7.37,0,0,1-2.18-5.24c0-3.18,1.53-4.78,4.59-4.78A3.72,3.72,0,0,1,139,8.91a6.42,6.42,0,0,1,.35,2.53l-3.18.23V11.4c0-1.15-.38-1.72-1.11-1.72s-1.11.53-1.11,1.8a3.87,3.87,0,0,0,1.38,2.94l1.34,1.38c2,2.14,2.76,3.56,2.76,5.47,0,2.94-1.84,4.9-4.6,4.9s-4.47-1.8-4.47-4.63a1.79,1.79,0,0,1,0-.46Z"/><path class="cls-3" d="M141.59.38h3.33V3.79h-3.33Zm0,6.51h3.33v19h-3.33Z"/><path class="cls-3" d="M147.2,23.07,152.1,10h-4.32V6.89h7.8V9.72l-4.74,13.12h4.74V25.9H147.2Z"/><path class="cls-3" d="M163.61,20v-.77h3.29c0,1.3,0,1.3,0,1.76,0,3.33-1.64,5.17-4.63,5.17a4.15,4.15,0,0,1-3.44-1.61,5.45,5.45,0,0,1-1-3.75V11.94c0-3.56,1.53-5.32,4.59-5.32,2.79,0,4.48,1.8,4.48,4.74V17h-5.74v4.21c0,1.37.34,1.95,1.18,1.95s1.27-.69,1.27-2.26Zm0-5.7V11.09c0-.91-.42-1.41-1.19-1.41s-1.22.53-1.22,1.41v3.22Z"/><path class="cls-3" d="M169.4,6.89h3.33V9.26q1.26-2.64,3.21-2.64h.15v3.71a6.46,6.46,0,0,0-1.22-.15c-1.45,0-2.14.91-2.14,2.83V25.9H169.4Z"/><path class="cls-1" d="M183.25.38h3.52l2.14,15.53,2-15.53h3.4L190.63,25.9h-3.52Z"/></g></g></svg>